<?xml version="1.0" encoding="utf-8"?>
<!-- Generator: Adobe Illustrator 22.1.0, SVG Export Plug-In . SVG Version: 6.00 Build 0)  -->
<svg version="1.1" id="Layer_1" xmlns="http://www.w3.org/2000/svg" xmlns:xlink="http://www.w3.org/1999/xlink" x="0px" y="0px"
	 viewBox="0 0 120 120" style="enable-background:new 0 0 120 120;" xml:space="preserve">
<style type="text/css">
	.st0{fill:url(#SVGID_1_);}
	.st1{fill:url(#SVGID_2_);}
	.st2{fill:url(#SVGID_3_);}
	.st3{fill:url(#SVGID_4_);}
</style>
<g>
	<g>
		<linearGradient id="SVGID_1_" gradientUnits="userSpaceOnUse" x1="17.9996" y1="87.0226" x2="78.401" y2="87.0226">
			<stop  offset="0" style="stop-color:#000046"/>
			<stop  offset="1" style="stop-color:#1CB5E0"/>
		</linearGradient>
		<path class="st0" d="M20.6,101.9c-3.5,3.5-3.5,9.2,0,12.7l0,0c1.7,1.7,4,2.6,6.4,2.6c2.4,0,4.7-0.9,6.4-2.6l45.1-45L65.7,56.8
			L20.6,101.9z M20.6,101.9"/>
		<linearGradient id="SVGID_2_" gradientUnits="userSpaceOnUse" x1="48.2079" y1="45.0807" x2="113" y2="45.0807">
			<stop  offset="0" style="stop-color:#000046"/>
			<stop  offset="1" style="stop-color:#1CB5E0"/>
		</linearGradient>
		<path class="st1" d="M111.6,61l-6.6-6.6c2.9-3.5,2.7-8.6-0.5-11.9l-16-16c0,0-14.1-15.2-37.4-7.3c-1.9,0.7-3.1,2.6-2.8,4.6
			c0,0,0,0.1,0,0.1c0.3,2.1,2.2,3.6,4.3,3.5c3.5-0.2,9.1,0,15.3,2.5c5.8,2.2,7.4,9.7,3,14.1c0,0-5.3,4.2,0,9.4l11.3,11.3
			c3.3,3.3,8.4,3.4,11.9,0.5l6.6,6.6c1.8,1.8,4.8,1.8,6.6,0l4.3-4.3C113.5,65.8,113.5,62.8,111.6,61L111.6,61z M111.6,61"/>
	</g>
</g>
<g>
	<g>
		
			<linearGradient id="SVGID_3_" gradientUnits="userSpaceOnUse" x1="31.9996" y1="72.0226" x2="92.401" y2="72.0226" gradientTransform="matrix(-1 0 0 1 130.9996 0)">
			<stop  offset="0" style="stop-color:#000046"/>
			<stop  offset="1" style="stop-color:#1CB5E0"/>
		</linearGradient>
		<path class="st2" d="M51.3,41.8L38.6,54.5l45.1,45c1.7,1.7,4,2.6,6.4,2.6c2.4,0,4.7-0.9,6.4-2.6l0,0c3.5-3.5,3.5-9.2,0-12.7
			L51.3,41.8z M96.4,86.9"/>
		
			<linearGradient id="SVGID_4_" gradientUnits="userSpaceOnUse" x1="62.2079" y1="30.0807" x2="127" y2="30.0807" gradientTransform="matrix(-1 0 0 1 130.9996 0)">
			<stop  offset="0" style="stop-color:#000046"/>
			<stop  offset="1" style="stop-color:#1CB5E0"/>
		</linearGradient>
		<path class="st3" d="M5.4,46c-1.8,1.8-1.8,4.8,0,6.6l4.3,4.3c1.8,1.8,4.8,1.8,6.6,0l6.6-6.6c3.5,2.9,8.6,2.7,11.9-0.5L46,38.4
			c5.3-5.3,0-9.4,0-9.4c-4.4-4.4-2.8-11.8,3-14.1c6.2-2.4,11.8-2.7,15.3-2.5c2.1,0.1,4-1.4,4.3-3.5c0,0,0-0.1,0-0.1
			c0.3-2-0.9-4-2.8-4.6c-23.3-8-37.4,7.3-37.4,7.3l-16,16c-3.3,3.3-3.4,8.4-0.5,11.9L5.4,46L5.4,46z M5.4,46"/>
	</g>
</g>
</svg>
